<svg width="50" height="59" viewBox="0 0 50 59" fill="none" xmlns="http://www.w3.org/2000/svg">
<path d="M29.7014 54.5007C29.7117 54.5053 29.7232 54.5061 29.734 54.5028C29.7447 54.4996 29.754 54.4926 29.76 54.4832C29.9738 54.2869 30.1906 54.0936 30.3986 53.8973L31.7548 52.547L32.6658 51.6389L33.6207 50.6928L34.5258 49.7964L35.469 48.8591L37.3027 47.0342L38.2752 46.0646L39.154 45.1859L40.1147 44.228L41.0345 43.3083L41.8547 42.491C41.9331 42.4074 42.0205 42.3327 42.1154 42.2684C42.1467 42.2466 42.18 42.228 42.215 42.2127C42.2545 42.1947 42.2986 42.189 42.3414 42.1963C42.3842 42.2036 42.4239 42.2236 42.4552 42.2537C42.5016 42.2951 42.5411 42.3435 42.5723 42.3973C42.6221 42.4852 42.669 42.573 42.7129 42.6638C43.0615 43.3786 43.4247 44.0845 43.829 44.7699C44.1219 45.2796 44.4382 45.7834 44.7722 46.2697C45.0651 46.7003 45.358 47.1338 45.689 47.5468C46.02 47.9598 46.3041 48.3377 46.6322 48.7185C46.9603 49.0993 47.2181 49.4039 47.5403 49.7291C47.8625 50.0542 48.1466 50.3618 48.4659 50.6635L49.0107 51.1702C49.0889 51.2402 49.1578 51.32 49.2158 51.4075C49.2482 51.4548 49.2692 51.5089 49.2773 51.5657C49.2863 51.6423 49.2665 51.7196 49.2216 51.7824C49.1686 51.8563 49.1066 51.9232 49.0371 51.9816C48.8057 52.1867 48.5567 52.3741 48.3165 52.5675C47.8215 52.9629 47.3089 53.3379 46.7904 53.7011C46.1772 54.1287 45.5484 54.533 44.904 54.9138C44.3006 55.2711 43.6864 55.606 43.0615 55.9185C41.2676 56.8158 39.3846 57.5227 37.4433 58.0275C36.8575 58.1818 36.2638 58.3165 35.6624 58.4317C35.2464 58.5118 34.8285 58.584 34.4086 58.6485C34.0132 58.7071 33.6178 58.7598 33.2194 58.8067C32.9938 58.833 32.7654 58.8535 32.5369 58.874C32.2176 58.9004 31.9013 58.9268 31.582 58.9473C31.3437 58.9629 31.1055 58.9746 30.8672 58.9824C30.1291 59.0059 29.4026 59.0059 28.6528 58.9824C28.2427 58.9824 27.8326 58.9502 27.4254 58.9121C27.1647 58.8887 26.904 58.8711 26.6433 58.8447C26.3826 58.8184 26.0751 58.7803 25.7909 58.7422C25.5068 58.7041 25.2432 58.6631 24.9708 58.6221C24.505 58.5518 24.0422 58.464 23.5794 58.3673C22.7358 58.1935 21.901 57.9816 21.0749 57.7317C20.0349 57.4194 19.013 57.0498 18.0139 56.6244C17.3871 56.3569 16.77 56.0688 16.1626 55.7603C15.5553 55.4518 14.9314 55.1071 14.2909 54.7263C13.666 54.3494 13.0567 53.9501 12.4631 53.5283C11.8147 53.0674 11.185 52.5792 10.5737 52.0636C10.2808 51.8088 9.98789 51.5452 9.69497 51.2815C9.40205 51.0179 9.01832 50.6752 8.70783 50.3589C8.39733 50.0425 8.07805 49.7086 7.77049 49.3776C7.46292 49.0466 7.14071 48.6628 6.83021 48.2996C6.51971 47.9364 6.22972 47.5468 5.9368 47.166C5.60287 46.7296 5.29531 46.2873 4.98774 45.8244C4.68018 45.3616 4.35796 44.8373 4.05626 44.3335C3.7194 43.774 3.42062 43.194 3.12477 42.614C2.78791 41.9579 2.49206 41.2813 2.205 40.6017C1.83592 39.7229 1.53421 38.8442 1.25008 37.942C0.933551 36.9142 0.678263 35.8686 0.485558 34.8106C0.415257 34.4416 0.36839 34.0666 0.301018 33.6975C0.242434 33.3783 0.210213 33.056 0.172133 32.7368C0.142841 32.4995 0.122337 32.2622 0.104761 32.025C0.0783986 31.6588 0.0549649 31.2927 0.0286021 30.9265C0.0286021 30.9031 0.0286021 30.8797 0.0286021 30.8562C0.0286021 30.3319 -0.0094776 29.8076 0.00223921 29.2832C0.013956 28.7589 0.0227438 28.2727 0.0578942 27.7688C0.0930446 27.265 0.128195 26.7993 0.189709 26.3042C0.219001 26.067 0.245363 25.8297 0.277584 25.5954C0.470691 24.1858 0.76436 22.7919 1.15635 21.4242C1.42876 20.5073 1.74219 19.5964 2.09076 18.7117C2.38368 18.0292 2.6561 17.3497 2.9871 16.6877C3.28002 16.0784 3.5993 15.4691 3.94495 14.8833C4.23787 14.3824 4.53079 13.8815 4.85593 13.3982C5.18107 12.9149 5.45934 12.496 5.78449 12.0595C6.10963 11.6231 6.37033 11.2569 6.70425 10.8878C7.03818 10.5188 7.3106 10.1643 7.62403 9.81283C7.93745 9.46132 8.20986 9.15962 8.53501 8.84326C9.12085 8.23594 9.74086 7.65693 10.3951 7.10624C10.9965 6.59266 11.6175 6.10446 12.258 5.64164C12.8595 5.20617 13.4775 4.79315 14.1122 4.40259C14.7137 4.03351 15.3278 3.68689 15.9547 3.36272C16.8642 2.89196 17.798 2.46957 18.7521 2.09731C19.6796 1.73326 20.625 1.4165 21.5846 1.14825C22.4145 0.917816 23.2533 0.722536 24.1008 0.562406C24.5929 0.470625 25.086 0.389583 25.58 0.319282C26.0048 0.257769 26.4295 0.207974 26.8572 0.161107C27.112 0.131815 27.3698 0.111307 27.6246 0.0937322C28.023 0.0644401 28.4243 0.0380773 28.8227 0.0205021C29.221 0.00292688 29.555 0 29.924 0C30.2931 0 30.6681 0 31.0401 0C31.4677 0.0136696 31.8954 0.0380796 32.3231 0.0732301C32.6687 0.102522 33.0173 0.131813 33.36 0.172822C33.7027 0.213831 34.0777 0.263629 34.435 0.316354C34.8451 0.377868 35.2523 0.451095 35.6594 0.533113C36.2199 0.644422 36.7764 0.773309 37.3291 0.919769C38.5856 1.25282 39.8178 1.6717 41.0169 2.17347C41.6321 2.43124 42.2384 2.70853 42.836 3.00536C43.4804 3.32562 44.1121 3.66834 44.7312 4.03351C45.3502 4.39869 45.9575 4.78339 46.5531 5.18762C47.1976 5.62407 47.8244 6.06638 48.4366 6.55848L48.8613 6.89534C48.9364 6.95461 49.0042 7.02244 49.0635 7.09746C49.1055 7.14671 49.13 7.20849 49.1331 7.27314C49.1363 7.3378 49.118 7.40168 49.081 7.45482C49.0346 7.52767 48.9806 7.59542 48.9199 7.65694C48.8057 7.7741 48.6944 7.89127 48.5772 7.99965C48.4073 8.15783 48.2433 8.3248 48.0792 8.49176C47.6145 8.96434 47.1653 9.45254 46.7318 9.95636C46.4213 10.3167 46.1255 10.6916 45.8267 11.0636C45.4928 11.4854 45.1823 11.9277 44.8747 12.3671C44.5671 12.8065 44.2478 13.322 43.9491 13.8112C43.6122 14.3589 43.3134 14.9272 43.0146 15.4984C42.8682 15.7913 42.7217 16.0843 42.5928 16.3567C42.5518 16.4416 42.505 16.5266 42.4581 16.6086C42.4304 16.6588 42.3937 16.7035 42.3497 16.7404C42.3198 16.7678 42.283 16.7864 42.2431 16.7942C42.2033 16.802 42.1622 16.7985 42.1242 16.7843C42.0567 16.7616 41.9933 16.728 41.9367 16.6847C41.8459 16.6144 41.758 16.5441 41.6701 16.468C41.222 16.0813 40.7592 15.7152 40.2817 15.3666C39.6788 14.9233 39.052 14.5136 38.4041 14.1393C37.835 13.8079 37.2483 13.5077 36.6466 13.24C35.5489 12.7534 34.4018 12.3871 33.2253 12.1474C32.7722 12.0556 32.3162 11.9834 31.8573 11.9306C30.9949 11.833 30.1261 11.8046 29.2591 11.8457C28.5876 11.8773 27.9186 11.9487 27.2555 12.0595C26.3301 12.213 25.4168 12.4322 24.5226 12.7157C23.5498 13.02 22.6003 13.3939 21.6813 13.8346C21.1057 14.1106 20.5445 14.4157 19.9999 14.7485C19.2883 15.1864 18.6099 15.6759 17.97 16.2131C17.721 16.4211 17.4808 16.6379 17.2435 16.8605C16.8451 17.2368 16.4667 17.6338 16.1099 18.0497C15.7877 18.4218 15.4919 18.8113 15.2048 19.2214C14.8609 19.7074 14.544 20.212 14.2557 20.7329C13.9094 21.3582 13.6031 22.0049 13.3389 22.6691C12.9213 23.713 12.595 24.791 12.3635 25.8912C12.2815 26.2681 12.2102 26.647 12.1496 27.0278C12.094 27.3793 12.053 27.7366 12.0208 28.0911C11.9565 28.7549 11.932 29.422 11.9475 30.0888C11.9475 30.4842 11.9797 30.8797 12.0178 31.2604C12.0559 31.6412 12.1086 32.0748 12.1731 32.479C12.2375 32.8832 12.3137 33.2377 12.4045 33.6126C12.7772 35.1825 13.3689 36.6921 14.162 38.0972C14.4549 38.601 14.7478 39.099 15.0876 39.5618C15.3806 39.969 15.6735 40.3732 15.9957 40.754C16.3179 41.1348 16.5815 41.4277 16.8744 41.7441C17.4719 42.3605 18.1121 42.9341 18.7901 43.4606C19.3622 43.904 19.9609 44.3119 20.5828 44.6821C22.3296 45.7227 24.2401 46.4596 26.2332 46.8614C26.6756 46.9522 27.112 47.0225 27.5719 47.0811C27.9449 47.1279 28.3198 47.1602 28.6967 47.1777C28.8256 47.1777 28.9545 47.1777 29.0834 47.1777C29.182 47.1753 29.2805 47.1861 29.3763 47.21C29.4466 47.2287 29.5107 47.2656 29.5621 47.317C29.6136 47.3685 29.6505 47.4326 29.6692 47.5029C29.7024 47.6229 29.7162 47.7475 29.7102 47.872C29.6926 48.4578 29.6956 49.0261 29.6956 49.6002C29.6956 51.1781 29.6956 52.7559 29.6956 54.3338C29.6895 54.3894 29.6915 54.4457 29.7014 54.5007Z" fill="#166AB3"/>
<path d="M30.0207 40.5725C29.9305 40.5738 29.8403 40.5669 29.7512 40.552C29.6753 40.5444 29.5987 40.5444 29.5228 40.552C29.3001 40.552 29.0775 40.5227 28.8549 40.4993C28.7524 40.4993 28.6469 40.4788 28.5444 40.4641C28.4419 40.4495 28.3364 40.4436 28.2339 40.426C28.0318 40.3938 27.8326 40.3587 27.6305 40.3177C27.2848 40.2474 26.9451 40.1653 26.6082 40.0657C26.2471 39.9606 25.8921 39.8354 25.5449 39.6908C25.2344 39.559 24.9268 39.4213 24.6281 39.2631C24.2383 39.0539 23.8599 38.8241 23.4945 38.5748C23.2689 38.4225 23.0551 38.2555 22.8442 38.0856L22.4136 37.7312C22.3587 37.6847 22.3069 37.6348 22.2583 37.5818C22.1368 37.459 22.0288 37.3234 21.9361 37.1776C21.811 36.9739 21.7441 36.7399 21.7428 36.5009C21.7378 36.3489 21.7637 36.1974 21.8189 36.0557C21.8782 35.9094 21.972 35.7797 22.0924 35.6776C22.2128 35.5756 22.3562 35.5043 22.5102 35.4698C22.6697 35.4293 22.8357 35.4213 22.9983 35.4465C23.1608 35.4717 23.3167 35.5294 23.4564 35.6163C23.5498 35.6723 23.6364 35.7392 23.7141 35.8155C23.8752 35.9707 24.0334 36.1289 24.2033 36.2754C24.539 36.5713 24.8963 36.8415 25.2725 37.0838C25.5535 37.2614 25.8472 37.4181 26.1512 37.5525C26.4169 37.668 26.6899 37.7659 26.9685 37.8454C27.2233 37.9186 27.4811 37.9919 27.7389 38.0505C27.9834 38.1084 28.2307 38.1533 28.48 38.1852C28.5883 38.1852 28.6967 38.2174 28.8022 38.235H28.8315C29.016 38.235 29.2005 38.2819 29.3851 38.2672C29.4993 38.2672 29.6106 38.2936 29.7249 38.2907C29.9475 38.2907 30.173 38.276 30.3927 38.2584C30.7755 38.2271 31.1554 38.1674 31.5293 38.0797C31.9546 37.9792 32.3709 37.844 32.7742 37.6755C33.0202 37.573 33.2575 37.4529 33.4918 37.327C33.7888 37.1648 34.0764 36.9858 34.353 36.7909C34.5952 36.623 34.8295 36.4443 35.056 36.2549C35.2786 36.0703 35.4983 35.8799 35.7268 35.7012C35.9378 35.5252 36.2049 35.4306 36.4796 35.4347C36.6763 35.4364 36.8672 35.501 37.0244 35.6192C37.2163 35.7608 37.3736 35.9441 37.4843 36.1553C37.552 36.2847 37.5836 36.4299 37.5759 36.5758C37.5682 36.7216 37.5214 36.8627 37.4404 36.9842C37.3496 37.1297 37.2424 37.2643 37.1211 37.3855C36.9834 37.532 36.8282 37.6785 36.6964 37.8103C36.5997 37.9011 36.4943 37.986 36.4035 38.071C36.3126 38.1559 36.1486 38.2848 36.0197 38.3873C35.7039 38.6311 35.3732 38.8552 35.0297 39.0581C34.7551 39.2206 34.4726 39.3692 34.1831 39.5033C33.9458 39.6147 33.7027 39.7113 33.4596 39.7963C33.0107 39.9668 32.5507 40.1067 32.0829 40.2151C31.7636 40.2913 31.4414 40.3499 31.1192 40.4026C30.961 40.426 30.8028 40.467 30.6446 40.4963C30.4398 40.5427 30.2307 40.5682 30.0207 40.5725Z" fill="#A6C7E3"/>
</svg>
