<svg width="48" height="59" viewBox="0 0 48 59" fill="none" xmlns="http://www.w3.org/2000/svg">
<path d="M10.0974 58.8284C9.10397 58.3852 8.65884 57.2199 9.10396 56.2264L17.7083 36.9812L21.3037 38.5878L12.6993 57.8331C12.2542 58.8265 11.0908 59.2716 10.0974 58.8284Z" fill="#D4145A"/>
<path d="M34.0498 25.0585C34.0498 25.0585 36.2887 21.5988 37.2248 19.6292C42.1307 9.28639 38.0062 0 38.0062 0C38.0062 0 29.1783 0.9017 22.9657 11.4241C21.6762 13.6096 19.9549 17.9825 19.9549 17.9825L16.3061 20.2272C15.6852 20.6093 15.1809 21.1518 14.8485 21.7994L11.0544 29.143L16.8085 27.4255C17.3358 27.267 17.8535 27.693 17.8058 28.2432C17.6606 29.9453 17.6453 31.317 17.6625 32.2091C17.6739 32.9026 18.0904 33.5235 18.7227 33.8062L22.4174 35.4587C23.0135 35.7242 23.7031 35.6497 24.2246 35.2562C24.9678 34.6945 26.051 33.8291 27.3118 32.6829C27.7264 32.3046 28.3931 32.4708 28.5765 33L30.6397 38.9834L34.4261 31.0954C34.7986 30.3178 34.9114 29.441 34.7452 28.5947L34.0498 25.0585ZM28.2422 18.8536C26.4617 18.057 25.6632 15.967 26.4598 14.1865C27.2564 12.4061 29.3464 11.6075 31.1269 12.4041C32.9074 13.2008 33.7059 15.2907 32.9093 17.0712C32.1126 18.8517 30.0246 19.6483 28.2422 18.8536Z" fill="#D4145A"/>
<path d="M12.3898 34.6563L9.56817 40.9663C9.56244 40.9797 9.55671 40.9911 9.55098 41.0045C8.76581 42.6895 6.22309 42.1985 6.03205 40.3493L4.11784 21.8395C4.04907 21.1766 4.33944 20.5271 4.87817 20.1374L20.6713 8.70179C21.1795 8.33499 21.8443 8.26622 22.4155 8.52221L22.9256 8.74955C23.7509 7.55747 24.6048 6.50484 25.4683 5.57257L22.4537 4.22575C21.5673 3.8303 20.5376 3.93537 19.7505 4.50466L1.12426 17.9939C0.337185 18.5632 -0.0850103 19.5088 0.0143298 20.4736L2.3813 43.3486C2.48064 44.3133 3.08814 45.1539 3.97456 45.5493L4.36046 45.7213C7.76286 47.2419 11.7556 45.7174 13.2762 42.3151L15.9909 36.2419L12.3898 34.6563Z" fill="#0B087F"/>
<path d="M43.4488 13.6115L40.8794 12.4634C40.7093 13.7261 40.4362 15.0462 40.0369 16.4007L40.2738 16.5077C40.845 16.7637 41.2385 17.3043 41.3016 17.9271L43.3094 37.3213C43.3782 37.9842 43.0878 38.6338 42.549 39.0235L26.5553 50.6062C26.1751 50.8813 25.6746 50.9214 25.2543 50.7112C24.047 50.1037 23.5311 48.6537 24.0832 47.4215L26.9297 41.0561L23.3248 39.4705L20.5891 45.5876C19.0685 48.99 20.593 52.9827 23.9954 54.5034L24.9716 54.9408C25.858 55.3363 26.8877 55.2312 27.6748 54.6619L46.301 41.1727C47.0881 40.6034 47.5103 39.6577 47.411 38.693L45.0421 15.818C44.9428 14.8456 44.3353 14.007 43.4488 13.6115Z" fill="#0B087F"/>
</svg>
