<?xml version="1.0" encoding="utf-8"?>
<!-- Generator: Adobe Illustrator 28.0.0, SVG Export Plug-In . SVG Version: 6.00 Build 0)  -->
<svg version="1.1" id="Layer_1" xmlns="http://www.w3.org/2000/svg" xmlns:xlink="http://www.w3.org/1999/xlink" x="0px" y="0px"
	 viewBox="0 0 300 300" style="enable-background:new 0 0 300 300;" xml:space="preserve">
<style type="text/css">
	.st0{fill-rule:evenodd;clip-rule:evenodd;fill:#ED1C24;}
	.st1{fill:#ED1C24;}
	.st2{fill:none;}
	.st3{fill-rule:evenodd;clip-rule:evenodd;fill:#156D00;}
	.st4{fill-rule:evenodd;clip-rule:evenodd;fill:#05C116;}
	.st5{fill:#FDCC03;}
	.st6{fill-rule:evenodd;clip-rule:evenodd;fill:#00B5E2;}
	.st7{fill-rule:evenodd;clip-rule:evenodd;fill:#7AD1FC;}
	.st8{fill:#FBB03B;}
	.st9{fill:#F15A24;}
	.st10{fill:url(#SVGID_1_);}
	.st11{fill:url(#SVGID_00000132767512673188140340000009052469981384395905_);}
	.st12{fill:url(#SVGID_00000016784288947288103880000010067911230373141438_);}
	.st13{fill:#FFFFFF;}
	.st14{fill:url(#SVGID_00000022539022401844690160000003800819494931721613_);}
	.st15{fill-rule:evenodd;clip-rule:evenodd;fill:#F4C531;}
	.st16{fill:#7C520F;}
	.st17{fill:url(#SVGID_00000104667670402265227440000015098834612638885016_);}
	.st18{fill:url(#SVGID_00000064331928093326801910000000606834159860519589_);}
	.st19{fill:url(#SVGID_00000052102573738343800670000017915283878296817066_);}
</style>
<g>
	<linearGradient id="SVGID_1_" gradientUnits="userSpaceOnUse" x1="148.8311" y1="243.1055" x2="150.9022" y2="129.1976">
		<stop  offset="0" style="stop-color:#FFF401"/>
		<stop  offset="1" style="stop-color:#FFA300"/>
	</linearGradient>
	<path class="st10" d="M250.4,181.2c-0.4,1.9-0.7,3.8-1.1,5.7c-3.9,17.8-18,30.7-33.9,30.8c-43.6,0.1-87.1,0.1-130.7,0
		c-18.1,0-33.3-16.4-35-37.3c-1.6-19.9,10.8-38.7,28.3-42.9c0.4-0.1,0.9-0.3,1.2-0.4c1.6-26.5,12.5-45.3,34.9-52.5
		c22.1-7.1,39.7,2.6,52.6,23.5c4-1.5,7.9-3.5,12-4.5c18.7-4.4,37.3,9.8,41.1,31.2c0.3,1.8,1,2.4,2.5,2.7c14,3.1,25.8,17.3,27.8,33.6
		c0.1,0.7,0.3,1.3,0.4,1.9C250.4,175.7,250.4,178.4,250.4,181.2z"/>
</g>
</svg>
