<?xml version="1.0" encoding="utf-8"?>
<!-- Generator: Adobe Illustrator 28.0.0, SVG Export Plug-In . SVG Version: 6.00 Build 0)  -->
<svg version="1.1" id="Layer_1" xmlns="http://www.w3.org/2000/svg" xmlns:xlink="http://www.w3.org/1999/xlink" x="0px" y="0px"
	 viewBox="0 0 300 300" style="enable-background:new 0 0 300 300;" xml:space="preserve">
<style type="text/css">
	.st0{fill-rule:evenodd;clip-rule:evenodd;fill:#ED1C24;}
	.st1{fill:#ED1C24;}
	.st2{fill:none;}
	.st3{fill-rule:evenodd;clip-rule:evenodd;fill:#156D00;}
	.st4{fill-rule:evenodd;clip-rule:evenodd;fill:#05C116;}
	.st5{fill:#FDCC03;}
	.st6{fill-rule:evenodd;clip-rule:evenodd;fill:#00B5E2;}
	.st7{fill-rule:evenodd;clip-rule:evenodd;fill:#7AD1FC;}
	.st8{fill:#FBB03B;}
	.st9{fill:#F15A24;}
	.st10{fill:url(#SVGID_1_);}
	.st11{fill:url(#SVGID_00000078010784052393328660000015157265177013222020_);}
	.st12{fill:url(#SVGID_00000163794604860150525210000003099438166506650038_);}
	.st13{fill:#FFFFFF;}
	.st14{fill:url(#SVGID_00000121269397760447095310000017441743610119417739_);}
	.st15{fill-rule:evenodd;clip-rule:evenodd;fill:#F4C531;}
	.st16{fill:#7C520F;}
	.st17{fill:url(#SVGID_00000036942573107637399790000016783276652766154650_);}
	.st18{fill:url(#SVGID_00000096059283174691536150000004273708514064475062_);}
	.st19{fill:url(#SVGID_00000052091357657460971150000015559991874626954940_);}
</style>
<g>
	<path class="st0" d="M69.8,216.3l67.1-98.4c1.4-2-0.4-4.7-2.8-4.2L56.5,129c-7.9,1.6-13.7-7.1-9.3-13.8l1.7-2.6
		c1.3-2,3.4-3.4,5.8-3.9l114.1-22.6c4.4-0.9,7.7,4.1,5.2,7.8L84.8,226.6c-4.5,6.7-14.8,4.6-16.4-3.3l0-0.2
		C67.9,220.8,68.4,218.3,69.8,216.3z"/>
	<path class="st1" d="M195.9,103.7l22.7,114.4c0.5,2.4,0,4.8-1.4,6.8l-1.7,2.6c-4.5,6.6-14.8,4.5-16.3-3.3L183.8,147
		c-0.5-2.4-3.6-3-5-1l-66.4,98.6c-1.3,2-3.4,3.4-5.7,3.8h0c-7.9,1.6-13.7-7.2-9.3-13.9l89.2-132.7C189.2,98.1,195,99.3,195.9,103.7z
		"/>
	<path class="st0" d="M90.4,91.2c-9.4,0-17.6-6.7-19.5-16c-1-5.2,0-10.5,3-14.9c3-4.4,7.5-7.4,12.7-8.5c1.3-0.3,2.6-0.4,3.9-0.4
		c9.4,0,17.6,6.7,19.5,16c1,5.2,0,10.5-3,14.9c-3,4.4-7.5,7.4-12.7,8.5C93,91.1,91.7,91.2,90.4,91.2z"/>
	<path class="st1" d="M234.4,156.8c-10,0-18.5-7.5-19.7-17.4c-0.7-5.3,0.8-10.5,4.1-14.7c3.3-4.2,8-6.9,13.2-7.5
		c0.8-0.1,1.7-0.2,2.5-0.2c10,0,18.5,7.5,19.7,17.4c0.7,5.3-0.8,10.5-4.1,14.7c-3.3,4.2-8,6.9-13.2,7.5
		C236,156.7,235.2,156.8,234.4,156.8z"/>
</g>
</svg>
