<svg width="644" height="740" viewBox="0 0 644 740" fill="none" xmlns="http://www.w3.org/2000/svg">
<path fill-rule="evenodd" clip-rule="evenodd" d="M394.41 724.942C427.812 727.582 459.966 737.076 484.921 733.514C524.424 727.866 522.17 691.741 522.17 670.305C522.17 648.852 537.522 650.235 544.284 645.727C551.055 641.21 554.332 627.417 564.488 622.9C574.653 618.383 569.575 601.456 569.575 589.037C569.575 576.626 606.815 583.397 626.005 584.52C645.195 585.651 631.653 513.417 620.365 441.173C609.078 368.939 691.075 287.318 600.044 145.447C509.013 3.58356 272.717 -48.6902 125.985 52.8909C-20.7472 154.48 -7.20526 278.637 10.8534 398.285C17.0043 439.062 13.9792 468.031 7.32551 488.503L7.31712 488.553C-8.303 566.688 81.0435 581.553 105.605 517.422C115.359 485.88 115.862 450.098 105.923 391.062H105.932C93.3116 337.179 100.828 278.511 131.574 227.31C194.256 122.938 329.683 89.1506 434.055 151.832C538.435 214.514 572.223 349.933 509.558 454.305C478.795 505.506 430.544 539.704 377.047 553.883L377.055 553.9C320.273 572.864 288.924 590.109 265.669 613.531C255.513 623.771 245.164 636.408 236.734 647.378L236.7 647.428C218.214 672.97 232.72 708.744 253.803 721.934C274.912 735.115 301.971 708.593 394.393 724.933L394.41 724.942Z" fill="url(#paint0_radial_870_40)"/>
<path fill-rule="evenodd" clip-rule="evenodd" d="M480.498 189.03C547.043 259.078 561.708 367.447 509.551 454.304C478.805 505.506 430.545 539.704 377.048 553.883L377.057 553.9C320.274 572.863 288.925 590.109 265.671 613.531C255.506 623.771 245.165 636.4 236.744 647.377L236.702 647.428C221.769 668.059 228.364 695.369 242.568 712.045C317.727 568.506 359.744 632.645 460.227 556.765C582.029 464.779 580.277 284.343 480.54 189.056L480.498 189.03Z" fill="url(#paint1_radial_870_40)"/>
<path fill-rule="evenodd" clip-rule="evenodd" d="M63.5467 686.284C57.907 682.547 50.2311 684.097 46.4852 689.745L46.4769 689.753C42.7394 695.401 44.2981 703.077 49.9378 706.815L96.9322 737.963C102.572 741.7 110.248 740.15 113.994 734.502L114.002 734.494C117.739 728.845 116.181 721.17 110.533 717.432L63.5467 686.284ZM70.4015 640.287C64.7618 636.541 57.0859 638.1 53.34 643.748V643.756C49.5942 649.404 51.1529 657.072 56.7926 660.817L136.628 713.72C142.276 717.466 149.952 715.907 153.698 710.259V710.25C157.443 704.611 155.885 696.935 150.237 693.189L70.4015 640.287ZM296.918 475.731C317.885 481.915 335.885 481.454 350.265 477.122C364.854 472.747 375.631 464.393 381.731 455.192C383.516 452.502 384.874 449.761 385.754 447.097L385.787 447.055C388.192 439.806 386.592 431.451 382.36 424.613C379.888 420.633 376.544 417.239 372.597 414.926C368.902 412.764 364.645 411.583 360.078 411.851C351.715 412.337 341.902 417.549 331.544 429.926C322.863 440.284 310.72 456.516 296.918 475.731ZM213.53 420.465C225.865 400.27 236.072 382.773 242.24 370.739C249.606 356.376 250.578 345.314 247.77 337.421C246.237 333.105 243.488 329.644 240.061 327.088C236.399 324.356 231.966 322.596 227.332 321.876C219.388 320.636 211.075 322.429 205.309 327.499C203.189 329.351 201.203 331.664 199.41 334.353C193.309 343.563 189.823 356.736 191.474 371.879C193.092 386.812 199.678 403.58 213.53 420.465ZM114.664 619.06L152.541 644.175C170.533 616.94 218.223 545.166 259.184 486.725C252.262 483.164 245.173 479.007 237.924 474.206C230.692 469.404 224.097 464.502 218.114 459.507C180.254 520.01 132.723 591.876 114.664 619.06ZM76.3512 593.678L94.3093 605.577C112.787 577.756 162.103 503.183 200.055 442.312C199.376 441.566 198.706 440.812 198.052 440.074L198.061 440.057C178.586 417.876 169.435 395.057 167.206 374.527C164.885 353.208 170.038 334.303 178.971 320.812C181.955 316.312 185.39 312.365 189.128 309.08C200.516 299.082 216.354 295.429 231.145 297.742C239.608 299.057 247.795 302.334 254.675 307.471C261.79 312.792 267.522 320.066 270.782 329.225C275.692 343.069 274.812 360.851 263.994 381.943C257.122 395.359 245.315 415.437 231.187 438.44C237.161 443.619 243.899 448.747 251.466 453.767C259.05 458.795 266.399 463.002 273.497 466.479C289.184 444.507 303.069 425.812 312.74 414.256C327.958 396.071 343.997 388.337 358.653 387.474C368.365 386.895 377.29 389.342 384.966 393.826C392.374 398.166 398.583 404.426 403.092 411.7C410.969 424.412 413.768 440.409 409.008 454.806L409.016 454.814C407.449 459.541 405.153 464.233 402.162 468.742C393.229 482.225 377.818 494.334 357.287 500.51C337.511 506.46 312.932 506.921 284.91 497.619L284.902 497.627C283.955 497.317 283.008 496.999 282.061 496.664C240.782 555.331 191.307 629.803 172.896 657.667L190.846 669.558C196.494 673.304 198.044 680.979 194.307 686.619V686.628C190.561 692.276 182.885 693.826 177.237 690.088L62.7507 614.2C57.1026 610.463 55.5439 602.787 59.2898 597.139V597.13C63.0356 591.482 70.7115 589.932 76.3512 593.678Z" fill="url(#paint2_radial_870_40)"/>
<defs>
<radialGradient id="paint0_radial_870_40" cx="0" cy="0" r="1" gradientUnits="userSpaceOnUse" gradientTransform="translate(321.759 367.152) rotate(90) scale(367.152 321.759)">
<stop stop-color="#FFC200"/>
<stop offset="1" stop-color="#997400"/>
</radialGradient>
<radialGradient id="paint1_radial_870_40" cx="0" cy="0" r="1" gradientUnits="userSpaceOnUse" gradientTransform="translate(390.916 450.538) rotate(90) scale(261.507 162.691)">
<stop stop-color="#FFC200"/>
<stop offset="0.0001" stop-color="#B28700"/>
<stop offset="1" stop-color="#997400"/>
</radialGradient>
<radialGradient id="paint2_radial_870_40" cx="0" cy="0" r="1" gradientUnits="userSpaceOnUse" gradientTransform="translate(227.891 518.536) rotate(90) scale(221.464 183.449)">
<stop stop-color="#FFC200"/>
<stop offset="1" stop-color="#997400"/>
</radialGradient>
</defs>
</svg>
